<?xml version="1.0" encoding="utf-8"?>
<!-- Generator: Adobe Illustrator 23.0.1, SVG Export Plug-In . SVG Version: 6.00 Build 0)  -->
<svg version="1.1" id="Layer_1" xmlns="http://www.w3.org/2000/svg" xmlns:xlink="http://www.w3.org/1999/xlink" x="0px" y="0px"
	 viewBox="0 0 517 517" style="enable-background:new 0 0 517 517;" xml:space="preserve">
<style type="text/css">
	.st0{fill:#FFFFFF;}
</style>
<path class="st0" d="M47,47v423h423V47H47z M312.92,335.28c-13.29,9.13-29.87,13.69-49.74,13.69c-13.17,0-25.25-2.25-36.22-6.76
	c-10.98-4.51-20.45-10.8-28.42-18.89c-7.97-8.09-14.21-17.62-18.72-28.6c-4.51-10.97-6.76-23.05-6.76-36.22
	c0-13.17,2.25-25.3,6.76-36.39c4.51-11.09,10.74-20.62,18.72-28.6c7.97-7.97,17.44-14.21,28.42-18.72
	c10.97-4.5,23.05-6.76,36.22-6.76c19.64,0,36.16,4.51,49.57,13.52c13.4,9.01,23.22,20.68,29.46,35.01l-41.59,17.33
	c-3.93-7.85-8.96-13.8-15.08-17.85c-6.12-4.04-13.81-6.07-23.05-6.07c-6.01,0-11.67,1.16-16.98,3.47c-5.32,2.31-10,5.55-14.04,9.71
	c-4.05,4.16-7.23,9.24-9.53,15.25c-2.31,6.01-3.47,12.71-3.47,20.1c0,7.4,1.15,14.1,3.47,20.1c2.31,6.01,5.49,11.09,9.53,15.25
	c4.04,4.16,8.72,7.4,14.04,9.71c5.31,2.31,10.97,3.47,16.98,3.47c9.47,0,17.5-2.13,24.09-6.41c6.59-4.27,11.84-10.45,15.77-18.54
	l41.59,18.02C336.54,314.42,326.2,326.15,312.92,335.28z"/>
<g>
	<path class="st0" d="M517,517H0V0h517V517z M15.17,501.83h486.65V15.17H15.17V501.83z"/>
</g>
</svg>
